<svg width="44" height="44" viewBox="0 0 44 44" fill="none" xmlns="http://www.w3.org/2000/svg">
<path fill-rule="evenodd" clip-rule="evenodd" d="M21.9047 2.29175H22.0953C23.7426 2.2917 25.1161 2.29166 26.2066 2.43825C27.3576 2.593 28.3967 2.9334 29.2316 3.76843C30.0667 4.60346 30.4071 5.64259 30.5618 6.79354C30.6702 7.59947 30.6984 8.56008 30.7058 9.67152C31.8947 9.70967 32.9545 9.77919 33.8965 9.90584C36.0459 10.1948 37.7857 10.8037 39.1578 12.1757C40.5297 13.5477 41.1385 15.2874 41.4277 17.4369C41.7083 19.5254 41.7083 22.194 41.7083 25.5633V25.7701C41.7083 29.1395 41.7083 31.8081 41.4277 33.8966C41.1385 36.046 40.5297 37.7858 39.1578 39.1579C37.7857 40.5298 36.0459 41.1386 33.8965 41.4277C31.808 41.7084 29.1394 41.7084 25.7701 41.7084H18.2299C14.8607 41.7084 12.192 41.7084 10.1035 41.4277C7.95403 41.1386 6.21429 40.5298 4.84228 39.1579C3.47028 37.7858 2.8614 36.046 2.57243 33.8966C2.29161 31.8081 2.29163 29.1395 2.29167 25.7701V25.5633C2.29163 22.194 2.29161 19.5254 2.57243 17.4369C2.8614 15.2874 3.47028 13.5477 4.84228 12.1757C6.21429 10.8037 7.95403 10.1948 10.1035 9.90584C11.0454 9.77919 12.1053 9.70967 13.2942 9.67152C13.3016 8.56008 13.3298 7.59947 13.4382 6.79354C13.5929 5.64259 13.9333 4.60346 14.7683 3.76843C15.6034 2.9334 16.6425 2.593 17.7935 2.43825C18.8839 2.29166 20.2574 2.2917 21.9047 2.29175ZM16.045 9.62835C16.7382 9.62506 17.4661 9.62508 18.2299 9.62508H25.7701C26.534 9.62508 27.2619 9.62506 27.955 9.62835C27.9473 8.58276 27.9217 7.79404 27.8364 7.15997C27.7226 6.31396 27.526 5.95189 27.2871 5.71297C27.0483 5.47405 26.6862 5.27748 25.8401 5.16374C24.9546 5.04468 23.7673 5.04175 22 5.04175C20.2327 5.04175 19.0454 5.04468 18.1599 5.16374C17.3139 5.27748 16.9518 5.47405 16.7129 5.71297C16.474 5.95189 16.2774 6.31396 16.1637 7.15997C16.0784 7.79404 16.0527 8.58276 16.045 9.62835ZM10.4699 12.6313C8.62539 12.8793 7.5627 13.3444 6.78682 14.1203C6.01093 14.8961 5.54587 15.9588 5.2979 17.8033C5.04458 19.6873 5.04167 22.1709 5.04167 25.6667C5.04167 29.1625 5.04458 31.6462 5.2979 33.5303C5.54587 35.3746 6.01093 36.4374 6.78682 37.2133C7.5627 37.9891 8.62539 38.4543 10.4699 38.7021C12.3539 38.9555 14.8375 38.9584 18.3333 38.9584H25.6667C29.1625 38.9584 31.6461 38.9555 33.5302 38.7021C35.3745 38.4543 36.4373 37.9891 37.2132 37.2133C37.989 36.4374 38.4542 35.3746 38.702 33.5303C38.9554 31.6462 38.9583 29.1625 38.9583 25.6667C38.9583 22.1709 38.9554 19.6873 38.702 17.8033C38.4542 15.9588 37.989 14.8961 37.2132 14.1203C36.4373 13.3444 35.3745 12.8793 33.5302 12.6313C31.6461 12.378 29.1625 12.3751 25.6667 12.3751H18.3333C14.8375 12.3751 12.3539 12.378 10.4699 12.6313ZM22 16.9584C22.7594 16.9584 23.375 17.574 23.375 18.3334V18.3521C25.3711 18.855 27.0417 20.4289 27.0417 22.6111C27.0417 23.3705 26.426 23.9861 25.6667 23.9861C24.9073 23.9861 24.2917 23.3705 24.2917 22.6111C24.2917 21.9071 23.511 20.9307 22 20.9307C20.489 20.9307 19.7083 21.9071 19.7083 22.6111C19.7083 23.3153 20.489 24.2917 22 24.2917C24.539 24.2917 27.0417 26.0514 27.0417 28.7224C27.0417 30.9046 25.3711 32.4785 23.375 32.9814V33.0001C23.375 33.7595 22.7594 34.3751 22 34.3751C21.2406 34.3751 20.625 33.7595 20.625 33.0001V32.9814C18.6289 32.4785 16.9583 30.9046 16.9583 28.7224C16.9583 27.963 17.5739 27.3474 18.3333 27.3474C19.0927 27.3474 19.7083 27.963 19.7083 28.7224C19.7083 29.4264 20.489 30.4028 22 30.4028C23.511 30.4028 24.2917 29.4264 24.2917 28.7224C24.2917 28.0182 23.511 27.0417 22 27.0417C19.461 27.0417 16.9583 25.2823 16.9583 22.6111C16.9583 20.4289 18.6289 18.855 20.625 18.3521V18.3334C20.625 17.574 21.2406 16.9584 22 16.9584Z" fill="#323232"/>
</svg>
