<svg width="33" height="33" viewBox="0 0 33 33" fill="none" xmlns="http://www.w3.org/2000/svg">
<path d="M31.6239 24.6263C31.6514 25.6576 31.3764 26.6338 30.8814 27.4726C30.6064 27.9676 30.2351 28.4215 29.8226 28.7927C28.8739 29.6727 27.6226 30.209 26.2339 30.2502C24.2264 30.2915 22.4526 29.2602 21.4764 27.679C20.9539 26.8677 20.6376 25.8915 20.6239 24.8602C20.5826 23.1277 21.3526 21.5602 22.5901 20.529C23.5251 19.759 24.7076 19.2777 26.0001 19.2502C29.0389 19.1815 31.5551 21.5876 31.6239 24.6263Z" stroke="white" stroke-width="2" stroke-miterlimit="10" stroke-linecap="round" stroke-linejoin="round"/>
<path d="M23.9793 24.7916L25.3681 26.1115L28.2418 23.334" stroke="white" stroke-width="2" stroke-linecap="round" stroke-linejoin="round"/>
<g opacity="0.4">
<path d="M4.35864 10.23L16.4999 17.2562L28.5586 10.2712" stroke="white" stroke-width="2" stroke-linecap="round" stroke-linejoin="round"/>
<path d="M16.5 29.7137V17.2424" stroke="white" stroke-width="2" stroke-linecap="round" stroke-linejoin="round"/>
<path d="M29.7146 12.6087V20.3912C29.7146 20.46 29.7146 20.515 29.7008 20.5837C28.7383 19.745 27.5008 19.25 26.1258 19.25C24.8333 19.25 23.6371 19.7037 22.6883 20.46C21.4233 21.4637 20.6258 23.0175 20.6258 24.75C20.6258 25.7812 20.9146 26.7575 21.4233 27.5825C21.5471 27.8025 21.6983 28.0087 21.8633 28.2012L19.3471 29.59C17.7796 30.47 15.2221 30.47 13.6546 29.59L6.3121 25.52C4.64835 24.5987 3.28711 22.2887 3.28711 20.3912V12.6087C3.28711 10.7112 4.64835 8.40128 6.3121 7.48003L13.6546 3.41C15.2221 2.53 17.7796 2.53 19.3471 3.41L26.6896 7.48003C28.3533 8.40128 29.7146 10.7112 29.7146 12.6087Z" stroke="white" stroke-width="2" stroke-linecap="round" stroke-linejoin="round"/>
</g>
</svg>
