<svg width="35" height="35" viewBox="0 0 35 35" fill="none" xmlns="http://www.w3.org/2000/svg">
<g clip-path="url(#clip0_149_348)">
<path d="M25.9549 14.7265L8.60674 17.795C7.238 18.0371 6.32469 19.343 6.56678 20.7117L8.10104 29.3858C8.34313 30.7545 9.64897 31.6678 11.0177 31.4257L28.3659 28.3572C29.7346 28.1151 30.6479 26.8093 30.4058 25.4405L28.8716 16.7665C28.6295 15.3977 27.3236 14.4844 25.9549 14.7265Z" stroke="black" stroke-width="2" stroke-linecap="round" stroke-linejoin="round"/>
<path d="M11.0851 17.3568L10.2083 12.4002C9.91769 10.757 10.2917 9.06562 11.2481 7.69817C12.2045 6.33072 13.665 5.3992 15.3082 5.10856C16.9514 4.81791 18.6428 5.19193 20.0103 6.14834C21.3777 7.10475 22.3092 8.56521 22.5999 10.2084L23.4766 15.1651" stroke="black" stroke-width="2" stroke-linecap="round" stroke-linejoin="round"/>
</g>
<defs>
<clipPath id="clip0_149_348">
<rect width="30" height="30" fill="white" transform="translate(0 5.26017) scale(1.00671) rotate(-10.0306)"/>
</clipPath>
</defs>
</svg>
