<svg width="41" height="41" viewBox="0 0 41 41" fill="none" xmlns="http://www.w3.org/2000/svg">
<g clip-path="url(#clip0_149_386)">
<path d="M27.7093 15.2299L12.1035 23.5407C10.8722 24.1965 10.4056 25.7261 11.0613 26.9574L15.2167 34.7603C15.8724 35.9916 17.4021 36.4582 18.6334 35.8025L34.2392 27.4916C35.4705 26.8359 35.9371 25.3062 35.2814 24.075L31.1259 16.2721C30.4702 15.0408 28.9405 14.5742 27.7093 15.2299Z" stroke="white" stroke-width="2" stroke-linecap="round" stroke-linejoin="round"/>
<path d="M14.3329 22.3537L11.9583 17.8948C11.1711 16.4167 11.0034 14.6863 11.492 13.0844C11.9806 11.4825 13.0855 10.1404 14.5637 9.35318C16.0419 8.56597 17.7722 8.39822 19.3741 8.88682C20.976 9.37542 22.3182 10.4803 23.1054 11.9585" stroke="white" stroke-width="2" stroke-linecap="round" stroke-linejoin="round"/>
</g>
<defs>
<clipPath id="clip0_149_386">
<rect width="30" height="30" fill="white" transform="translate(0 14.2473) scale(1.01033) rotate(-28.0374)"/>
</clipPath>
</defs>
</svg>
